<svg id="visual" viewBox="0 0 900 600" width="900" height="600" xmlns="http://www.w3.org/2000/svg" xmlns:xlink="http://www.w3.org/1999/xlink" version="1.1"><rect x="0" y="0" width="900" height="600" fill="#ffffff"></rect><defs><linearGradient id="grad1_0" x1="33.3%" y1="0%" x2="100%" y2="100%"><stop offset="20%" stop-color="#dca500" stop-opacity="1"></stop><stop offset="80%" stop-color="#dca500" stop-opacity="1"></stop></linearGradient></defs><defs><linearGradient id="grad1_1" x1="33.3%" y1="0%" x2="100%" y2="100%"><stop offset="20%" stop-color="#dca500" stop-opacity="1"></stop><stop offset="80%" stop-color="#efc26a" stop-opacity="1"></stop></linearGradient></defs><defs><linearGradient id="grad1_2" x1="33.3%" y1="0%" x2="100%" y2="100%"><stop offset="20%" stop-color="#fbe0b4" stop-opacity="1"></stop><stop offset="80%" stop-color="#efc26a" stop-opacity="1"></stop></linearGradient></defs><defs><linearGradient id="grad1_3" x1="33.3%" y1="0%" x2="100%" y2="100%"><stop offset="20%" stop-color="#fbe0b4" stop-opacity="1"></stop><stop offset="80%" stop-color="#ffffff" stop-opacity="1"></stop></linearGradient></defs><defs><linearGradient id="grad2_0" x1="0%" y1="0%" x2="66.7%" y2="100%"><stop offset="20%" stop-color="#dca500" stop-opacity="1"></stop><stop offset="80%" stop-color="#dca500" stop-opacity="1"></stop></linearGradient></defs><defs><linearGradient id="grad2_1" x1="0%" y1="0%" x2="66.7%" y2="100%"><stop offset="20%" stop-color="#efc26a" stop-opacity="1"></stop><stop offset="80%" stop-color="#dca500" stop-opacity="1"></stop></linearGradient></defs><defs><linearGradient id="grad2_2" x1="0%" y1="0%" x2="66.7%" y2="100%"><stop offset="20%" stop-color="#efc26a" stop-opacity="1"></stop><stop offset="80%" stop-color="#fbe0b4" stop-opacity="1"></stop></linearGradient></defs><defs><linearGradient id="grad2_3" x1="0%" y1="0%" x2="66.7%" y2="100%"><stop offset="20%" stop-color="#ffffff" stop-opacity="1"></stop><stop offset="80%" stop-color="#fbe0b4" stop-opacity="1"></stop></linearGradient></defs><g transform="translate(900, 0)"><path d="M0 270.4C-48 263.7 -96 257.1 -135.2 234.2C-174.5 211.3 -205 172.2 -226 130.5C-247.1 88.8 -258.8 44.4 -270.4 0L0 0Z" fill="#feefd9"></path><path d="M0 202.8C-36 197.8 -72 192.8 -101.4 175.6C-130.8 158.5 -153.7 129.2 -169.5 97.9C-185.3 66.6 -194.1 33.3 -202.8 0L0 0Z" fill="#f6d18f"></path><path d="M0 135.2C-24 131.9 -48 128.5 -67.6 117.1C-87.2 105.7 -102.5 86.1 -113 65.3C-123.6 44.4 -129.4 22.2 -135.2 0L0 0Z" fill="#e6b342"></path><path d="M0 67.6C-12 65.9 -24 64.3 -33.8 58.5C-43.6 52.8 -51.2 43.1 -56.5 32.6C-61.8 22.2 -64.7 11.1 -67.6 0L0 0Z" fill="#dca500"></path></g><g transform="translate(0, 600)"><path d="M0 -270.4C48 -263.7 96 -257.1 135.2 -234.2C174.5 -211.3 205 -172.2 226 -130.5C247.1 -88.8 258.8 -44.4 270.4 0L0 0Z" fill="#feefd9"></path><path d="M0 -202.8C36 -197.8 72 -192.8 101.4 -175.6C130.8 -158.5 153.7 -129.2 169.5 -97.9C185.3 -66.6 194.1 -33.3 202.8 0L0 0Z" fill="#f6d18f"></path><path d="M0 -135.2C24 -131.9 48 -128.5 67.6 -117.1C87.2 -105.7 102.5 -86.1 113 -65.3C123.6 -44.4 129.4 -22.2 135.2 0L0 0Z" fill="#e6b342"></path><path d="M0 -67.6C12 -65.9 24 -64.3 33.8 -58.5C43.6 -52.8 51.2 -43.1 56.5 -32.6C61.8 -22.2 64.7 -11.1 67.6 0L0 0Z" fill="#dca500"></path></g></svg>